<svg width="40" height="40" viewBox="0 0 40 40" fill="none" xmlns="http://www.w3.org/2000/svg">
<g clip-path="url(#clip0_2142_8368)">
<path d="M32 0H8C3.58172 0 0 3.58172 0 8V32C0 36.4183 3.58172 40 8 40H32C36.4183 40 40 36.4183 40 32V8C40 3.58172 36.4183 0 32 0Z" fill="white"/>
<path d="M18.6426 27.4043H26.2568L24.9521 24.7959L27.0566 21.9893L27.0625 21.9873L31.3418 30.5479H7.52832L20.8857 13.2617H13.2715L14.4531 15.627L12.3447 18.4375L8.18555 10.1191H32L18.6426 27.4043ZM13.9287 27.4043H14.6709L25.5996 13.2617H24.8574L13.9287 27.4043Z" fill="#0E0E13"/>
</g>
<defs>
<clipPath id="clip0_2142_8368">
<rect width="40" height="40" fill="white"/>
</clipPath>
</defs>
</svg>
