<svg width="57" height="20" viewBox="0 0 57 20" fill="none" xmlns="http://www.w3.org/2000/svg">
<path d="M4.89207 4.31422L5.13914 3.90877C5.22974 3.76518 5.27915 3.6427 5.28739 3.54134C5.29562 3.43997 5.34504 3.3175 5.43563 3.1739C5.78977 2.97118 6.08626 2.74733 6.3251 2.50238C6.58041 2.24052 6.88513 2.02513 7.23927 1.85619C7.47811 1.68726 7.66342 1.57322 7.79519 1.5141C7.94343 1.44652 8.07932 1.36628 8.20286 1.27336C8.27698 1.23957 8.35111 1.20579 8.42523 1.172C8.49935 1.13821 8.56935 1.10442 8.63524 1.07064C8.79172 0.994615 8.95232 0.935487 9.11703 0.893253C9.26528 0.851019 9.38058 0.804561 9.46294 0.75388C9.51235 0.720093 9.56177 0.694752 9.61118 0.677859C9.6606 0.652518 9.71001 0.631401 9.75943 0.614507C10.0147 0.521592 10.2453 0.445571 10.4512 0.386443C10.5665 0.352655 10.6777 0.318868 10.7848 0.285081C10.9001 0.251293 11.0113 0.217506 11.1183 0.183719L11.4148 0.0570162C11.5219 0.00633513 11.629 -0.0105585 11.736 0.00633513C11.909 0.0401225 12.0202 0.0485693 12.0696 0.0316756C12.119 0.014782 12.156 0.00633513 12.1808 0.00633513C12.3208 -0.0105585 12.4319 0.00633513 12.5143 0.0570162C12.5555 0.0823567 12.6008 0.107697 12.6502 0.133038C12.7078 0.149931 12.7655 0.166825 12.8231 0.183719C12.922 0.217506 13.0167 0.242847 13.1073 0.25974C13.1979 0.268187 13.2844 0.293528 13.3667 0.335762C13.4573 0.369549 13.5273 0.416007 13.5767 0.475135L13.7373 0.639848C13.8197 0.690529 13.8814 0.732763 13.9226 0.766551L14.1079 0.918594C14.1738 1.06219 14.2438 1.20579 14.3179 1.34938C14.3921 1.49298 14.4703 1.63657 14.5527 1.78017C14.7174 2.07581 14.7997 2.42213 14.7997 2.81913C14.7009 2.97118 14.6433 3.0472 14.6268 3.0472C14.6021 3.0472 14.5856 3.06409 14.5774 3.09788C14.4868 3.15701 14.4085 3.21613 14.3427 3.27526C14.2768 3.32594 14.2232 3.3724 14.1821 3.41463L13.9103 3.70605L13.5644 4.06082C13.5314 4.08616 13.4738 4.11572 13.3914 4.14951C13.3173 4.17485 13.2761 4.22975 13.2679 4.31422C13.1526 4.3649 13.0455 4.44937 12.9467 4.56763C12.8561 4.67744 12.749 4.75346 12.6255 4.79569C12.4937 4.96463 12.3125 5.11245 12.0819 5.23915C11.9749 5.29828 11.8719 5.35741 11.7731 5.41653C11.6743 5.47566 11.5795 5.53901 11.4889 5.60659L11.1307 5.83465C11.073 5.86844 11.0195 5.91067 10.9701 5.96136C10.8795 6.00359 10.793 6.04582 10.7107 6.08806C10.6283 6.13029 10.5542 6.17253 10.4883 6.21476C10.3565 6.29923 10.1959 6.37525 10.0065 6.44283C9.91591 6.48506 9.83767 6.52729 9.77178 6.56953C9.70589 6.62021 9.61118 6.6371 9.48765 6.62021L9.24057 6.50618C9.15821 6.46394 9.08409 6.50195 9.01821 6.62021C8.80407 6.654 8.6023 6.61599 8.41287 6.50618C8.22345 6.39637 8.1205 6.2401 8.10403 6.03738C7.90637 5.86844 7.84872 5.64038 7.93108 5.35318C7.96402 5.22648 8.02579 5.09133 8.11638 4.94774C8.15756 4.88016 8.19874 4.81681 8.23992 4.75768C8.2811 4.69011 8.31816 4.62676 8.35111 4.56763C8.42523 4.43248 8.49935 4.28466 8.57347 4.12417C8.63936 3.98057 8.71348 3.8412 8.79584 3.70605C9.02644 3.45264 9.26116 3.21613 9.5 2.99652C9.73884 2.7769 10.0394 2.62485 10.4018 2.54039C10.5171 2.5066 10.6324 2.47281 10.7477 2.43902C10.863 2.40524 10.9701 2.37145 11.0689 2.33766C11.1183 2.37145 11.1677 2.37145 11.2172 2.33766C11.2666 2.29543 11.316 2.29543 11.3654 2.33766C11.4313 2.38834 11.456 2.44747 11.4395 2.51505C11.4231 2.59951 11.4148 2.67554 11.4148 2.74311C11.3078 2.89515 11.1595 2.97118 10.9701 2.97118C10.7889 2.97118 10.6818 3.07254 10.6489 3.27526C10.1712 3.6976 9.75943 4.20441 9.41352 4.79569C9.46294 4.82948 9.52883 4.87171 9.61118 4.92239C9.69354 4.97308 9.7759 5.00686 9.85826 5.02376C9.99003 5.05754 10.1424 5.02376 10.3153 4.92239C10.4883 4.82103 10.6242 4.74501 10.723 4.69433C11.1842 4.47471 11.596 4.17907 11.9584 3.80741C12.0572 3.72294 12.1602 3.63003 12.2672 3.52867C12.3743 3.4273 12.4525 3.32594 12.502 3.22458C12.5349 3.18235 12.5637 3.14011 12.5884 3.09788C12.6214 3.05564 12.6502 3.01341 12.6749 2.97118C12.7243 2.88671 12.7902 2.81913 12.8726 2.76845C12.8973 2.56573 12.8643 2.41368 12.7737 2.31232C12.6831 2.21096 12.5802 2.1096 12.4649 2.00824C12.3496 1.89843 12.2631 1.74638 12.2055 1.55211C12.1231 1.51832 12.0531 1.45919 11.9954 1.37472C11.9378 1.29025 11.8678 1.23113 11.7854 1.19734C11.769 1.19734 11.7443 1.19734 11.7113 1.19734C11.6784 1.18889 11.6331 1.18045 11.5754 1.172L11.3901 1.14666C10.9783 1.23113 10.6571 1.32404 10.4265 1.4254C10.1959 1.52677 9.96532 1.62813 9.73472 1.72949C9.18292 2.03358 8.66407 2.38834 8.17815 2.79379C8.15345 2.81069 8.12462 2.82758 8.09168 2.84447C8.06697 2.86137 8.03814 2.87826 8.0052 2.89515C7.92284 2.94583 7.87343 2.97962 7.85696 2.99652C7.79107 3.0472 7.72107 3.13167 7.64694 3.24992C7.614 3.3006 7.58106 3.35128 7.54811 3.40196C7.51517 3.45264 7.47811 3.50333 7.43693 3.55401L7.1775 3.8961C7.08691 4.01436 7.02514 4.13684 6.9922 4.26354C6.9016 4.31422 6.83572 4.41136 6.79454 4.55496C6.75336 4.707 6.69571 4.82103 6.62159 4.89705C6.58041 5.04065 6.53923 5.16313 6.49805 5.26449C6.45687 5.36585 6.41569 5.49678 6.37451 5.65727C6.44863 5.80931 6.51452 5.94446 6.57217 6.06272C6.62982 6.18097 6.67512 6.28234 6.70806 6.3668C6.74924 6.45127 6.7863 6.53574 6.81925 6.62021C6.86042 6.70468 6.9016 6.78915 6.94278 6.87361C6.95102 7.051 7.00455 7.21571 7.10338 7.36775C7.19397 7.5029 7.28045 7.66762 7.36281 7.86189C7.60165 8.26734 7.81166 8.67701 7.99285 9.09091C8.17404 9.5048 8.38405 9.91448 8.62289 10.3199C8.6723 10.4382 8.72172 10.5564 8.77113 10.6747C8.82055 10.7845 8.86584 10.8985 8.90702 11.0168C8.99762 11.2533 9.13351 11.4518 9.31469 11.6123C9.33117 11.6714 9.34764 11.7305 9.36411 11.7897C9.38882 11.8404 9.41764 11.8953 9.45058 11.9544C9.48353 12.0135 9.51235 12.0726 9.53706 12.1318C9.56177 12.1825 9.58648 12.2374 9.61118 12.2965C9.64413 12.3978 9.68119 12.5034 9.72237 12.6132C9.77178 12.723 9.82531 12.8371 9.88296 12.9553C9.92414 13.0651 9.98179 13.1834 10.0559 13.3101C10.1218 13.4115 10.1712 13.5128 10.2042 13.6142C10.27 13.7662 10.3236 13.9563 10.3648 14.1844C10.4059 14.4124 10.4183 14.6025 10.4018 14.7545C10.4018 14.991 10.3853 15.1346 10.3524 15.1853C10.3277 15.2275 10.2906 15.2698 10.2412 15.312C10.2 15.3458 10.1547 15.4809 10.1053 15.7175C9.94885 16.0046 9.7759 16.2496 9.58648 16.4523C9.38882 16.6635 9.21586 16.9169 9.06762 17.2125C8.98526 17.3308 8.8782 17.4491 8.74642 17.5673L8.40052 17.8714C8.29345 17.9559 8.17404 18.0319 8.04226 18.0995C7.92696 18.1586 7.81578 18.2431 7.70871 18.3529C7.4287 18.6063 7.13632 18.7879 6.8316 18.8977C6.50217 19.0244 6.21803 19.1722 5.97919 19.3411C5.88036 19.3411 5.78153 19.3538 5.6827 19.3792C5.58387 19.4045 5.48505 19.4341 5.38622 19.4678C5.30386 19.5016 5.21738 19.5354 5.12679 19.5692C5.03619 19.603 4.94148 19.6368 4.84265 19.6706C4.73559 19.7128 4.66558 19.7466 4.63264 19.7719C4.5997 19.7888 4.52969 19.8226 4.42263 19.8733C4.19202 19.924 3.94495 19.9535 3.6814 19.962C3.41786 19.9704 3.14608 19.9409 2.86606 19.8733C2.5531 19.755 2.31014 19.7044 2.13719 19.7213C1.96424 19.7297 1.81188 19.6621 1.6801 19.5185C1.59775 19.4847 1.55245 19.4425 1.54421 19.3918C1.53598 19.3411 1.49892 19.2905 1.43303 19.2398L1.08713 18.961C1.02124 18.9104 0.971825 18.8681 0.938882 18.8343C0.700043 18.6316 0.502384 18.3951 0.345904 18.1248L0.197659 17.8714C0.140009 17.77 0.107065 17.694 0.0988296 17.6433C0.0658864 17.5504 0.0617685 17.4448 0.0864759 17.3266C0.111183 17.2168 0.0905938 17.1112 0.0247074 17.0098C0.041179 16.8916 0.041179 16.7649 0.0247074 16.6297C0.0164716 16.5621 0.0123537 16.4988 0.0123537 16.4397C0.0041179 16.3805 0 16.3256 0 16.2749C0 16.1398 0.0205895 15.9878 0.0617685 15.8188C0.102948 15.6668 0.0988296 15.5485 0.0494148 15.464C0.082358 15.2444 0.131773 15.0797 0.197659 14.9699C0.263546 14.8601 0.345904 14.7376 0.444733 14.6025C0.584742 14.5349 0.712397 14.4715 0.827698 14.4124C0.951235 14.3533 1.0583 14.2942 1.14889 14.235C1.23949 14.1759 1.3342 14.121 1.43303 14.0703C1.53186 14.0196 1.63069 13.969 1.72952 13.9183C1.83658 13.8676 1.90659 13.8338 1.93953 13.8169L2.12484 13.7156C2.25661 13.6395 2.41309 13.572 2.59428 13.5128C2.7837 13.4537 2.95665 13.3861 3.11313 13.3101C3.26961 13.2172 3.42198 13.1412 3.57022 13.082C3.71847 13.0229 3.87083 12.9469 4.02731 12.854C4.13437 12.854 4.22909 12.8286 4.31144 12.778C4.40204 12.7273 4.50498 12.7019 4.62029 12.7019C4.6697 12.7019 4.71088 12.7062 4.74382 12.7146C4.77677 12.723 4.82618 12.7273 4.89207 12.7273H5.16385C5.27091 12.7273 5.36151 12.7442 5.43563 12.778C5.52622 12.8117 5.60035 12.8624 5.658 12.93C5.72388 12.9976 5.81448 13.0314 5.92978 13.0314C6.04508 13.1496 6.13979 13.2805 6.21391 13.4241C6.28804 13.5677 6.3498 13.7156 6.39922 13.8676C6.48158 14.0872 6.52276 14.3322 6.52276 14.6025C6.51452 14.8474 6.42804 15.0417 6.26333 15.1853C6.10685 15.3205 5.96272 15.4809 5.83095 15.6668C5.60035 15.7512 5.34504 15.8948 5.06502 16.0976C4.9003 16.0807 4.75206 16.1102 4.62029 16.1863C4.48028 16.2707 4.3238 16.3341 4.15085 16.3763C4.06849 16.3848 3.97789 16.3848 3.87906 16.3763C3.772 16.3594 3.6814 16.3679 3.60728 16.4016C3.5414 16.4101 3.45904 16.4439 3.36021 16.503C3.26961 16.5537 3.18726 16.5621 3.11313 16.5283C3.03078 16.4946 2.96901 16.427 2.92783 16.3256C2.88665 16.2243 2.88253 16.1229 2.91547 16.0215C3.02254 15.8442 3.16667 15.7386 3.34785 15.7048C3.52081 15.671 3.70611 15.5992 3.90377 15.4894C4.08496 15.388 4.22909 15.2782 4.33615 15.16C4.40204 15.0924 4.46381 15.0248 4.52146 14.9572C4.58734 14.8897 4.65323 14.8221 4.71912 14.7545C4.80971 14.6532 4.90854 14.5518 5.0156 14.4504C5.13091 14.3491 5.15561 14.2139 5.08973 14.045C4.94148 13.9267 4.77265 13.8929 4.58322 13.9436C4.3938 13.9943 4.22497 14.0534 4.07672 14.121C3.92848 14.1886 3.78023 14.2604 3.63199 14.3364C3.48375 14.404 3.33962 14.4758 3.19961 14.5518C3.0596 14.6278 2.91547 14.7038 2.76723 14.7799C2.62722 14.8474 2.48721 14.915 2.3472 14.9826C2.21543 15.0333 2.1166 15.0924 2.05072 15.16C2.00954 15.2106 1.98483 15.2782 1.97659 15.3627C1.96836 15.4472 1.94365 15.5232 1.90247 15.5908C1.78717 15.8526 1.75423 16.106 1.80364 16.351C1.84482 16.4439 1.886 16.5241 1.92718 16.5917C1.97659 16.6677 2.0013 16.748 2.0013 16.8324C2.12484 16.9591 2.2319 17.0858 2.3225 17.2125C2.37191 17.2463 2.41309 17.2674 2.44603 17.2759C2.47898 17.2843 2.52839 17.297 2.59428 17.3139C2.73429 17.4068 2.93195 17.4997 3.18726 17.5927C3.28609 17.6264 3.43845 17.6771 3.64434 17.7447C3.85024 17.8123 3.99436 17.8461 4.07672 17.8461C4.16732 17.863 4.27438 17.8461 4.39792 17.7954L4.74382 17.6687C4.93325 17.5758 5.12267 17.4828 5.31209 17.3899C5.50975 17.2886 5.70741 17.1872 5.90507 17.0858C6.10273 16.9845 6.29627 16.8873 6.4857 16.7944C6.68335 16.6931 6.8769 16.5959 7.06632 16.503C7.35457 16.3172 7.57694 16.0976 7.73342 15.8442C7.88166 15.6583 8.0052 15.4303 8.10403 15.16C8.20286 14.8897 8.27698 14.6109 8.3264 14.3237C8.34287 14.2393 8.35111 14.1759 8.35111 14.1337V13.969C8.25228 13.7747 8.20698 13.6606 8.21521 13.6269C8.23169 13.5846 8.21933 13.5466 8.17815 13.5128C8.05462 13.2932 7.98461 13.1538 7.96814 13.0947C7.9352 12.9933 7.90637 12.9216 7.88166 12.8793C7.82401 12.7864 7.75813 12.7019 7.684 12.6259C7.61812 12.5414 7.544 12.4654 7.46164 12.3978C7.29692 12.2542 7.18986 12.0515 7.14044 11.7897C7.03338 11.6968 6.96337 11.5869 6.93043 11.4602C6.89749 11.3335 6.81101 11.2491 6.671 11.2068L6.58453 10.9914C6.57629 10.9577 6.56394 10.9239 6.54746 10.8901C6.53099 10.8479 6.51452 10.8014 6.49805 10.7507C6.39922 10.6325 6.3251 10.5058 6.27568 10.3706C6.16038 10.2692 6.07802 10.1763 6.02861 10.0919C5.95449 9.96516 5.88036 9.85535 5.80624 9.76243C5.69094 9.64418 5.60035 9.54281 5.53446 9.45835C5.50152 9.41611 5.46857 9.37388 5.43563 9.33164C5.41092 9.28096 5.39033 9.23028 5.37386 9.1796C5.34092 9.08669 5.27915 8.99377 5.18856 8.90086C5.13914 8.80794 5.07737 8.73192 5.00325 8.67279C4.93736 8.61366 4.88383 8.52919 4.84265 8.41939C4.60381 8.13219 4.43086 7.74364 4.3238 7.25372C4.35674 7.05944 4.3238 6.88206 4.22497 6.72157C4.12614 6.56953 4.10143 6.37525 4.15085 6.13874C4.24144 5.88533 4.33203 5.64882 4.42263 5.4292C4.47204 5.31095 4.51734 5.19692 4.55852 5.08711C4.5997 4.9773 4.63676 4.87171 4.6697 4.77035C4.76029 4.72812 4.80971 4.66477 4.81795 4.5803C4.83442 4.48738 4.85912 4.39869 4.89207 4.31422Z" fill="white"/>
<path d="M12.329 13.4115C12.4361 13.3523 12.5678 13.2256 12.7243 13.0314C12.8808 12.8286 13.0332 12.6344 13.1814 12.4485C13.3296 12.2542 13.4408 12.1444 13.515 12.1191C13.5644 12.0346 13.6097 11.9628 13.6508 11.9037C13.692 11.8446 13.7538 11.7897 13.8362 11.739C13.9679 11.494 14.1409 11.2871 14.355 11.1182C14.5774 10.9408 14.7833 10.7507 14.9727 10.548C15.1292 10.4804 15.2857 10.4044 15.4421 10.3199C15.6068 10.2355 15.7674 10.1383 15.9239 10.0285C16.2451 9.80889 16.6034 9.69486 16.9987 9.68641C17.1799 9.77088 17.357 9.79622 17.5299 9.76243C17.6946 9.72865 17.8552 9.77088 18.0117 9.88914C18.1023 10.0496 18.1764 10.1468 18.2341 10.1806C18.2917 10.2143 18.3411 10.2608 18.3823 10.3199C18.4482 10.5311 18.4976 10.6705 18.5306 10.738C18.5717 10.8056 18.5964 10.8774 18.6047 10.9534C18.6129 11.0801 18.6212 11.1899 18.6294 11.2829C18.6376 11.3673 18.6459 11.4391 18.6541 11.4983C18.6623 11.6081 18.6623 11.7137 18.6541 11.815C18.6047 12.2458 18.5223 12.6766 18.407 13.1074C18.3905 13.1581 18.3741 13.2087 18.3576 13.2594C18.3411 13.3101 18.3247 13.365 18.3082 13.4241C18.2752 13.5339 18.2341 13.6311 18.1847 13.7156C18.0611 13.876 17.9746 14.007 17.9252 14.1083C17.8511 14.2435 17.7976 14.3322 17.7646 14.3744C17.6658 14.4758 17.5711 14.5687 17.4805 14.6532C17.3981 14.7376 17.3199 14.8136 17.2458 14.8812C17.1717 14.9235 17.0975 14.9699 17.0234 15.0206C16.9493 15.0628 16.8752 15.1093 16.801 15.16C16.661 15.2529 16.4963 15.3205 16.3069 15.3627L16.0845 15.5021C16.0104 15.5527 15.928 15.5823 15.8375 15.5908C15.6892 15.7006 15.5245 15.7893 15.3433 15.8568C15.2609 15.8906 15.1745 15.9244 15.0839 15.9582C15.0015 15.992 14.915 16.03 14.8244 16.0722C14.7009 16.1229 14.5938 16.182 14.5033 16.2496C14.4127 16.3172 14.2974 16.3848 14.1573 16.4523C14.0832 16.4777 13.9638 16.5072 13.7991 16.541C13.6426 16.5664 13.5314 16.5959 13.4655 16.6297C13.5479 16.7986 13.5808 17.0098 13.5644 17.2632C13.5561 17.4997 13.5973 17.7109 13.6879 17.8967C13.902 17.9474 14.1368 17.9854 14.3921 18.0108C14.6474 18.0361 14.8903 18.0319 15.1209 17.9981C15.1621 17.9897 15.2033 17.977 15.2445 17.9601C15.2939 17.9432 15.3433 17.9263 15.3927 17.9094C15.4421 17.8925 15.4915 17.8756 15.541 17.8587C15.5904 17.8418 15.6398 17.8292 15.6892 17.8207C15.8704 17.7869 16.0475 17.7447 16.2204 17.694C16.3934 17.6433 16.5457 17.5758 16.6775 17.4913C17.1552 17.3224 17.6164 17.0943 18.0611 16.8071C18.5059 16.5199 18.8929 16.2074 19.2224 15.8695C19.42 15.7343 19.6383 15.5485 19.8771 15.312C20.116 15.0755 20.3013 14.8559 20.433 14.6532C20.6801 14.3829 20.8984 14.1717 21.0878 14.0196C21.2772 13.8676 21.4543 13.8 21.619 13.8169C21.7508 13.8169 21.8784 13.8972 22.0019 14.0576C22.1255 14.2181 22.1131 14.3913 21.9649 14.5771C21.8084 14.6785 21.6355 14.8305 21.446 15.0333C21.2648 15.236 21.0754 15.3796 20.8778 15.464C20.7378 15.557 20.5524 15.7428 20.3218 16.0215C20.0995 16.2834 19.9142 16.4861 19.7659 16.6297C19.733 16.6635 19.6959 16.7015 19.6547 16.7437C19.6136 16.786 19.5642 16.8282 19.5065 16.8704C19.3994 16.9549 19.313 17.0436 19.2471 17.1365C18.9918 17.3561 18.7447 17.542 18.5059 17.694C18.4153 17.6602 18.3411 17.6771 18.2835 17.7447C18.2094 17.8376 18.1435 17.9052 18.0858 17.9474C18.0611 17.9643 18.0364 17.9812 18.0117 17.9981C17.987 18.015 17.9582 18.0319 17.9252 18.0488C17.8923 18.0657 17.8635 18.0826 17.8388 18.0995C17.814 18.1164 17.7893 18.1332 17.7646 18.1501C17.6329 18.2684 17.4887 18.3867 17.3322 18.5049C17.1758 18.6232 17.0152 18.7245 16.8505 18.809C16.6857 18.9104 16.521 19.0033 16.3563 19.0877C16.1916 19.1807 16.0269 19.2609 15.8622 19.3285C15.6974 19.3961 15.5327 19.4763 15.368 19.5692C15.2115 19.6621 15.055 19.7635 14.8986 19.8733L14.6268 19.9113C14.5856 19.9198 14.5444 19.924 14.5033 19.924C14.4621 19.9324 14.4209 19.9409 14.3797 19.9493C14.2891 19.9831 14.2026 20 14.1203 20C14.0379 20 13.935 19.9831 13.8114 19.9493C13.2679 19.7973 12.8231 19.527 12.4772 19.1384C12.4278 19.0877 12.3743 19.0413 12.3166 18.999C12.2672 18.9484 12.2137 18.9019 12.156 18.8597C12.0243 18.7583 11.9337 18.6654 11.8843 18.5809C11.8101 18.4542 11.736 18.2557 11.6619 17.9854C11.5795 17.7151 11.5095 17.4406 11.4519 17.1619C11.3942 16.8747 11.3654 16.6551 11.3654 16.503C11.4148 16.4016 11.4684 16.2285 11.526 15.9835C11.5837 15.7301 11.6331 15.4809 11.6743 15.236C11.7154 14.9826 11.736 14.8052 11.736 14.7038C11.769 14.67 11.8349 14.5602 11.9337 14.3744C12.0243 14.1801 12.1107 13.9859 12.1931 13.7916C12.2837 13.5889 12.329 13.4621 12.329 13.4115ZM16.3069 11.7897C16.1916 11.9417 16.0763 12.0853 15.961 12.2205C15.8457 12.3556 15.7139 12.4823 15.5657 12.6006C15.4668 12.7864 15.3515 12.9553 15.2198 13.1074C15.088 13.2594 14.9562 13.403 14.8244 13.5382C14.7586 13.6733 14.6844 13.7789 14.6021 13.8549C14.5197 13.9309 14.4291 14.0112 14.3303 14.0957C14.2232 14.2815 14.0915 14.4589 13.935 14.6278C13.7785 14.7967 13.7456 14.991 13.8362 15.2106C14.0173 15.2444 14.1985 15.2191 14.3797 15.1346C14.5609 15.0502 14.7174 14.9741 14.8492 14.9066C14.915 14.8643 14.9809 14.8263 15.0468 14.7925C15.1209 14.7587 15.1909 14.7249 15.2568 14.6912C15.3227 14.6574 15.3886 14.6236 15.4545 14.5898C15.5204 14.556 15.5821 14.518 15.6398 14.4758L16.2822 13.8169C16.381 13.724 16.4798 13.6142 16.5787 13.4875C16.6199 13.4284 16.661 13.3692 16.7022 13.3101C16.7516 13.2425 16.801 13.175 16.8505 13.1074C16.8916 12.9216 16.9575 12.7484 17.0481 12.5879C17.1469 12.419 17.1881 12.2458 17.1717 12.0684C17.1634 11.9924 17.1346 11.9037 17.0852 11.8023C17.0358 11.701 17.0069 11.6207 16.9987 11.5616C16.8257 11.5616 16.6981 11.5912 16.6157 11.6503C16.5746 11.6841 16.5251 11.7137 16.4675 11.739C16.4181 11.7559 16.3645 11.7728 16.3069 11.7897Z" fill="white"/>
<path d="M28.0923 11.9671L28.0676 12.1698C28.0841 12.2289 28.0676 12.3303 28.0182 12.4739C27.9358 12.5752 27.8864 12.685 27.87 12.8033C27.837 12.8709 27.8082 12.93 27.7835 12.9807C27.7588 13.0314 27.7382 13.0989 27.7217 13.1834C27.6888 13.2848 27.6764 13.403 27.6847 13.5382C27.6929 13.6057 27.6929 13.6733 27.6847 13.7409C27.6847 13.8 27.6805 13.8591 27.6723 13.9183C27.6394 14.1041 27.6147 14.2857 27.5982 14.4631C27.5817 14.6405 27.5652 14.8221 27.5488 15.0079C27.5488 15.1937 27.5323 15.4049 27.4993 15.6414C27.4664 15.8779 27.4335 16.0891 27.4005 16.2749C27.4746 16.4101 27.5158 16.5368 27.5241 16.6551C27.5323 16.7818 27.5899 16.8916 27.697 16.9845C28.0264 16.9338 28.29 16.8536 28.4876 16.7437C28.6853 16.6339 28.8747 16.4777 29.0559 16.2749C29.1877 16.2158 29.2906 16.1567 29.3648 16.0976C29.4306 16.0384 29.5254 15.9709 29.6489 15.8948L29.8466 15.6921C30.0442 15.5823 30.1554 15.5147 30.1801 15.4894C30.1966 15.4725 30.2172 15.4556 30.2419 15.4387C30.2748 15.4218 30.3078 15.4049 30.3407 15.388C30.6207 15.2022 30.8348 15.0079 30.9831 14.8052C31.1066 14.7038 31.2096 14.5982 31.2919 14.4884C31.3578 14.3955 31.4855 14.3068 31.6749 14.2224C31.782 14.0872 31.9014 13.9732 32.0332 13.8803C32.1649 13.7874 32.2844 13.6733 32.3914 13.5382C32.482 13.5382 32.5479 13.5551 32.5891 13.5889C32.6138 13.6057 32.6385 13.6226 32.6632 13.6395C32.6961 13.6564 32.7291 13.6733 32.762 13.6902C32.8114 13.8254 32.8197 13.9647 32.7867 14.1083C32.7538 14.2519 32.6961 14.3829 32.6138 14.5011C32.5314 14.6109 32.4902 14.6785 32.4902 14.7038C32.4902 14.7207 32.482 14.7376 32.4655 14.7545C32.4161 14.8136 32.3544 14.877 32.2802 14.9446C32.2061 15.0037 32.1443 15.067 32.0949 15.1346C32.0126 15.2867 31.9467 15.3627 31.8973 15.3627C31.8479 15.3627 31.8067 15.3796 31.7737 15.4134C31.6255 15.5063 31.5225 15.5739 31.4649 15.6161C31.399 15.6752 31.3043 15.7428 31.1808 15.8188C31.0078 15.9117 30.9007 15.9793 30.8596 16.0215C30.8184 16.0638 30.7854 16.0891 30.7607 16.0976C30.5631 16.3256 30.3695 16.5157 30.1801 16.6677C30.0072 16.8029 29.8218 16.9929 29.6242 17.2379C29.5583 17.2886 29.4924 17.3392 29.4265 17.3899C29.3606 17.4406 29.303 17.5082 29.2536 17.5927C29.1053 17.694 28.9859 17.7954 28.8953 17.8967C28.8047 17.9981 28.7018 18.1164 28.5865 18.2515C28.4876 18.3022 28.3806 18.374 28.2653 18.4669C28.1253 18.5767 28.0017 18.657 27.8947 18.7076C27.8535 18.733 27.7835 18.771 27.6847 18.8217C27.6023 18.8639 27.5241 18.885 27.4499 18.885C27.2605 18.9188 27.0793 18.9019 26.9064 18.8343C26.7499 18.7752 26.5934 18.7245 26.4369 18.6823C26.371 18.5809 26.2887 18.4965 26.1899 18.4289C26.0416 18.2431 25.9345 18.0234 25.8687 17.77C25.8028 17.5166 25.7369 17.2463 25.671 16.9591C25.5228 17.0605 25.3992 17.1703 25.3004 17.2886C25.2016 17.4153 25.0533 17.5251 24.8557 17.618C24.6909 17.7785 24.5221 17.939 24.3492 18.0995C24.1762 18.2515 23.995 18.3993 23.8056 18.5429C23.6244 18.6865 23.4391 18.8386 23.2497 18.999C23.0603 19.1511 22.8708 19.3074 22.6814 19.4678C22.5496 19.603 22.459 19.6537 22.4096 19.6199C22.2614 19.8057 21.9978 19.8649 21.619 19.7973C21.4872 19.7297 21.339 19.6706 21.1743 19.6199C21.059 19.5861 20.9272 19.5354 20.7789 19.4678C20.4989 19.4172 20.2642 19.2905 20.0748 19.0877C19.8853 18.885 19.7248 18.6485 19.593 18.3782C19.5436 18.2346 19.5065 18.1079 19.4818 17.9981C19.4736 17.939 19.4612 17.8756 19.4447 17.808C19.4283 17.7405 19.4118 17.6687 19.3953 17.5927C19.3871 17.4491 19.3624 17.335 19.3212 17.2506C19.2883 17.1576 19.2883 17.0689 19.3212 16.9845C19.2883 16.9422 19.28 16.8873 19.2965 16.8198C19.313 16.7353 19.3212 16.6719 19.3212 16.6297C19.3047 16.3932 19.3253 16.1398 19.383 15.8695C19.4406 15.5992 19.5189 15.3542 19.6177 15.1346C19.6671 15.0502 19.733 14.9657 19.8153 14.8812C19.8565 14.8305 19.8812 14.7799 19.8895 14.7292C19.8977 14.6869 19.9224 14.6447 19.9636 14.6025C20.0048 14.5518 20.0542 14.5011 20.1118 14.4504C20.1942 14.3829 20.2518 14.3322 20.2848 14.2984C20.326 14.2393 20.3671 14.1844 20.4083 14.1337C20.4577 14.0745 20.5113 14.0239 20.5689 13.9816C20.6266 13.9394 20.6801 13.8929 20.7295 13.8423C20.7789 13.7916 20.8283 13.7409 20.8778 13.6902C20.9354 13.6311 20.9807 13.572 21.0137 13.5128C21.0548 13.4453 21.1166 13.3946 21.199 13.3608C21.2648 13.2425 21.339 13.1454 21.4213 13.0694C21.5037 12.9933 21.5943 12.9131 21.6931 12.8286C21.9731 12.4823 22.319 12.1867 22.7308 11.9417C23.1508 11.6968 23.5215 11.4265 23.8427 11.1308C23.958 11.0801 24.0568 11.021 24.1391 10.9534C24.2215 10.8859 24.3039 10.8183 24.3862 10.7507C24.5921 10.5649 24.8145 10.5058 25.0533 10.5733L25.6957 10.7507C25.8604 10.9028 26.021 11.0548 26.1775 11.2068C26.334 11.3589 26.4699 11.5278 26.5852 11.7137C26.6428 11.7052 26.7046 11.701 26.7705 11.701C26.8364 11.6925 26.9064 11.6925 26.9805 11.701C27.1287 11.7179 27.2852 11.7052 27.4499 11.663C27.4993 11.663 27.5488 11.6503 27.5982 11.625C27.6476 11.5996 27.6888 11.5869 27.7217 11.5869C27.9688 11.6714 28.0923 11.7981 28.0923 11.9671ZM24.8309 12.3472C24.3862 12.5668 23.9827 12.8244 23.6203 13.1201C23.2579 13.4157 22.912 13.7324 22.5826 14.0703C22.5414 14.1126 22.4961 14.1548 22.4467 14.197C22.4055 14.2308 22.3643 14.2688 22.3231 14.3111C22.282 14.3448 22.2408 14.3829 22.1996 14.4251C22.1584 14.4673 22.1214 14.5096 22.0884 14.5518C22.0225 14.6363 21.9608 14.7376 21.9031 14.8559C21.8455 14.9741 21.7919 15.0839 21.7425 15.1853C21.7261 15.2191 21.7096 15.2529 21.6931 15.2867C21.6766 15.312 21.6602 15.3331 21.6437 15.35C21.6272 15.3669 21.6107 15.388 21.5943 15.4134C21.5778 15.4387 21.5613 15.464 21.5449 15.4894C21.5119 15.5739 21.4996 15.6583 21.5078 15.7428C21.516 15.8019 21.5202 15.8948 21.5202 16.0215V16.2749C21.5202 16.3256 21.5284 16.4101 21.5449 16.5283C21.5943 16.7142 21.619 16.9 21.619 17.0858C21.619 17.221 21.6313 17.3857 21.656 17.58C21.6808 17.7743 21.7425 17.9052 21.8414 17.9728C21.9484 18.0403 22.0514 18.0572 22.1502 18.0234C22.2655 17.9812 22.3602 17.9559 22.4343 17.9474C23.0108 17.4913 23.5544 17.014 24.065 16.5157C24.5756 16.0173 25.0286 15.4556 25.4239 14.8305C25.391 14.4166 25.3869 13.9901 25.4116 13.5508C25.4363 13.1369 25.3992 12.7526 25.3004 12.3978C25.2345 12.3556 25.1563 12.3429 25.0657 12.3598C24.9998 12.3683 24.9215 12.3641 24.8309 12.3472Z" fill="white"/>
<path d="M32.762 15.8948C32.8938 15.8104 33.0009 15.7006 33.0832 15.5654C33.1244 15.4978 33.1697 15.4303 33.2191 15.3627C33.2685 15.2951 33.3221 15.2275 33.3797 15.16C33.5938 14.9066 33.8244 14.6954 34.0715 14.5264C34.1868 14.3491 34.3309 14.2181 34.5039 14.1337C34.6769 14.0408 34.8127 13.9014 34.9116 13.7156C34.9363 13.6818 34.9651 13.6311 34.998 13.5635C35.031 13.4959 35.0598 13.4453 35.0845 13.4115C35.3975 12.9638 35.7352 12.5921 36.0975 12.2965C36.1469 12.2542 36.1964 12.212 36.2458 12.1698C36.2952 12.1275 36.3405 12.0853 36.3817 12.0431C36.4475 11.9755 36.5587 11.891 36.7152 11.7897C36.7893 11.7474 36.8635 11.701 36.9376 11.6503C37.0117 11.5912 37.0817 11.5278 37.1476 11.4602C37.2794 11.3251 37.4317 11.2237 37.6047 11.1562C37.7117 11.1055 37.8188 11.0675 37.9259 11.0421C37.9753 11.0252 38.0247 11.0126 38.0741 11.0041C38.1318 10.9872 38.1894 10.9703 38.2471 10.9534C38.3624 10.9196 38.4653 10.8901 38.5559 10.8647C38.6465 10.8394 38.7495 10.8436 38.8648 10.8774C39.1283 10.9872 39.326 11.2153 39.4577 11.5616C39.5072 11.6883 39.4783 11.9544 39.3713 12.3598C39.2724 12.7653 39.153 13.1876 39.013 13.6269C38.873 14.0576 38.7742 14.3913 38.7165 14.6278C38.6836 14.7545 38.6753 14.8263 38.6918 14.8432C38.7083 14.8601 38.7165 14.8812 38.7165 14.9066C38.6836 14.991 38.6589 15.067 38.6424 15.1346C38.6259 15.2022 38.6094 15.2782 38.593 15.3627C38.56 15.4978 38.5353 15.6794 38.5189 15.9075C38.5024 16.1356 38.5106 16.3172 38.5436 16.4523C38.7083 16.4439 38.803 16.427 38.8277 16.4016C38.8442 16.3848 38.8648 16.3763 38.8895 16.3763C38.9554 16.3594 39.0089 16.3552 39.0501 16.3636C39.0912 16.3721 39.1448 16.3679 39.2107 16.351C39.5483 16.2581 39.8531 16.0722 40.1248 15.7935C40.2731 15.7259 40.4131 15.6583 40.5449 15.5908C40.6849 15.5232 40.8166 15.4556 40.9402 15.388C41.1708 15.2191 41.3561 15.0966 41.4961 15.0206C41.6361 14.9446 41.8461 14.839 42.1261 14.7038C42.2332 14.5771 42.3773 14.4715 42.5585 14.3871C42.7232 14.3111 42.8838 14.2055 43.0403 14.0703C43.0897 14.0196 43.1309 13.9732 43.1638 13.9309C43.2133 13.8634 43.2627 13.8507 43.3121 13.8929C43.3945 13.9774 43.448 14.0661 43.4727 14.159C43.4974 14.2519 43.5015 14.3153 43.485 14.3491C43.3615 14.4758 43.2915 14.5771 43.275 14.6532C43.2586 14.7292 43.238 14.7799 43.2133 14.8052C43.1309 14.8897 43.0074 14.9657 42.8427 15.0333C42.7026 15.0924 42.6162 15.1473 42.5832 15.198C42.5503 15.2487 42.5215 15.2867 42.4967 15.312C42.4473 15.3627 42.402 15.4007 42.3609 15.426C42.3197 15.4514 42.2744 15.4894 42.225 15.5401C42.192 15.5908 42.1467 15.6203 42.0891 15.6288L41.9285 15.6668C41.8296 15.7512 41.7473 15.8273 41.6814 15.8948C41.6155 15.9624 41.5414 16.0384 41.459 16.1229C41.3355 16.2496 41.2531 16.3467 41.212 16.4143C41.179 16.4734 41.0884 16.5537 40.9402 16.6551L40.446 16.9591C40.2154 17.0774 39.9848 17.221 39.7542 17.3899C39.5236 17.5589 39.293 17.7278 39.0624 17.8967C38.9142 17.9897 38.7453 18.0783 38.5559 18.1628C38.383 18.2388 38.2224 18.3275 38.0741 18.4289C38 18.4289 37.9547 18.4247 37.9382 18.4162C37.9135 18.3993 37.8682 18.412 37.8023 18.4542C37.72 18.412 37.6376 18.4078 37.5553 18.4416C37.4647 18.4838 37.3823 18.488 37.3082 18.4542C37.2258 18.3867 37.1558 18.3317 37.0982 18.2895C37.0488 18.2473 37.0076 18.2177 36.9746 18.2008C36.9252 18.167 36.8799 18.1248 36.8388 18.0741C36.8058 17.9897 36.7935 17.8967 36.8017 17.7954C36.8099 17.694 36.7893 17.6095 36.7399 17.542C36.7399 17.1703 36.7523 16.8155 36.777 16.4777C36.8017 16.1398 36.8552 15.785 36.9376 15.4134C36.9541 15.2951 36.9952 15.0924 37.0611 14.8052C37.127 14.5096 37.1805 14.2266 37.2217 13.9563C37.2629 13.686 37.2505 13.5297 37.1847 13.4875C37.0035 13.5889 36.8182 13.7409 36.6287 13.9436C36.5381 14.045 36.4475 14.1379 36.357 14.2224C36.2664 14.3068 36.1799 14.3829 36.0975 14.4504L35.7146 14.7292C35.6569 14.7714 35.5951 14.8179 35.5293 14.8685C35.4634 14.9108 35.3975 14.9572 35.3316 15.0079C35.2163 15.0924 35.1175 15.1769 35.0351 15.2613C34.9528 15.3458 34.8622 15.4472 34.7633 15.5654C34.7057 15.6245 34.648 15.6837 34.5904 15.7428C34.541 15.7935 34.4915 15.8484 34.4421 15.9075C34.3433 16.0173 34.228 16.1229 34.0962 16.2243C34.0139 16.3087 33.9521 16.3636 33.9109 16.389C33.8697 16.4143 33.8162 16.4608 33.7503 16.5283L33.5156 16.7691C33.4415 16.8451 33.3468 16.9085 33.2315 16.9591C32.9679 17.3224 32.6714 17.6729 32.342 18.0108C32.0208 18.3486 31.7655 18.6907 31.5761 19.0371C31.3784 19.206 31.1684 19.3538 30.946 19.4805C30.7237 19.6072 30.456 19.6199 30.143 19.5185C29.9783 19.4172 29.8713 19.3327 29.8218 19.2651C29.7724 19.206 29.7148 19.1553 29.6489 19.1131C29.6654 18.9273 29.6818 18.7499 29.6983 18.5809C29.7148 18.412 29.7642 18.2346 29.8466 18.0488L29.9948 17.7954C30.0772 17.6518 30.1307 17.4828 30.1554 17.2886C30.1801 17.0858 30.2336 16.9085 30.316 16.7564C30.4148 16.5875 30.4766 16.4481 30.5013 16.3383C30.526 16.2369 30.5631 16.1398 30.6125 16.0469C30.6537 15.9455 30.699 15.8653 30.7484 15.8061C30.7978 15.747 30.8431 15.6668 30.8843 15.5654C30.9254 15.4725 30.9831 15.3754 31.0572 15.274C31.1313 15.1726 31.189 15.0755 31.2302 14.9826C31.329 14.6194 31.4608 14.2477 31.6255 13.8676C31.6584 13.7493 31.6914 13.6353 31.7243 13.5255C31.7573 13.4157 31.7984 13.3101 31.8479 13.2087C31.889 13.1158 31.9302 13.0229 31.9714 12.93C32.0126 12.8371 32.0537 12.7484 32.0949 12.6639C32.1361 12.571 32.1773 12.4823 32.2185 12.3978C32.2596 12.3049 32.3008 12.212 32.342 12.1191C32.3914 12.0177 32.4367 11.929 32.4779 11.853C32.5191 11.777 32.5726 11.6968 32.6385 11.6123C32.6632 11.5701 32.6879 11.5278 32.7126 11.4856C32.7373 11.4434 32.7579 11.4011 32.7744 11.3589C32.7909 11.3167 32.8114 11.2744 32.8361 11.2322C32.8609 11.1899 32.8856 11.1477 32.9103 11.1055C32.935 11.0632 32.9597 11.021 32.9844 10.9788C33.0091 10.9281 33.0297 10.8732 33.0462 10.8141C33.0791 10.7043 33.1409 10.5987 33.2315 10.4973C33.2891 10.4297 33.3385 10.3664 33.3797 10.3073C33.4291 10.2397 33.4703 10.1763 33.5032 10.1172C33.5609 10.0074 33.668 9.93137 33.8244 9.88914C33.9645 9.95671 34.1086 9.93137 34.2568 9.81311C34.4133 9.68641 34.541 9.69486 34.6398 9.83845C34.8704 9.9905 35.0269 10.1088 35.1092 10.1932C35.2081 10.2861 35.2739 10.3791 35.3069 10.472C35.3892 10.624 35.3975 10.7803 35.3316 10.9408C35.2657 11.1013 35.1504 11.2406 34.9857 11.3589C34.928 11.6207 34.8127 11.891 34.6398 12.1698C34.5574 12.2965 34.4792 12.4232 34.4051 12.5499C34.3309 12.6681 34.2609 12.7864 34.1951 12.9047L33.9974 13.4115C33.8986 13.648 33.7956 13.8845 33.6886 14.121C33.5815 14.3575 33.4621 14.5856 33.3303 14.8052C33.2232 15.0333 33.1409 15.1811 33.0832 15.2487C33.0338 15.3162 32.9885 15.3838 32.9473 15.4514C32.9144 15.5105 32.8526 15.6583 32.762 15.8948Z" fill="white"/>
<path d="M57 0.589167C56.9918 0.622954 56.9506 0.648295 56.8765 0.665188C56.8188 0.673635 56.7776 0.690529 56.7529 0.71587C56.8353 0.9017 56.8518 1.12132 56.8023 1.37472C56.7612 1.63657 56.6706 1.86042 56.5306 2.04625C56.3823 2.23208 56.2588 2.42213 56.1599 2.61641C56.0282 2.71777 55.9129 2.82758 55.814 2.94583C55.7152 3.06409 55.6164 3.18235 55.5176 3.3006C55.3858 3.40196 55.2581 3.52022 55.1346 3.65537C55.0275 3.77362 54.8916 3.88343 54.7269 3.9848C54.6693 4.08616 54.5787 4.17063 54.4551 4.2382C54.381 4.3649 54.2945 4.48316 54.1957 4.59297L53.9363 4.89705C53.8539 4.99842 53.7633 5.09978 53.6645 5.20114C53.5657 5.3025 53.4586 5.39542 53.3433 5.47989C53.0798 5.80087 52.8409 6.08806 52.6268 6.34146C52.4127 6.59487 52.1903 6.83983 51.9597 7.07634C51.8609 7.26217 51.7538 7.40999 51.6385 7.5198C51.515 7.62961 51.4079 7.79432 51.3173 8.01394C51.0867 8.242 50.9467 8.39827 50.8973 8.48274C50.8396 8.5841 50.7655 8.68968 50.6749 8.79949C50.6337 8.87551 50.5843 8.93042 50.5267 8.96421C50.469 8.99799 50.4196 9.04445 50.3784 9.10358C50.329 9.17115 50.2837 9.23451 50.2425 9.29363C50.2013 9.35276 50.1643 9.40767 50.1313 9.45835L49.5878 10.1045C49.4972 10.2143 49.4066 10.3241 49.316 10.434C49.2254 10.5353 49.1348 10.6409 49.0442 10.7507C48.9536 10.8605 48.863 10.9703 48.7724 11.0801C48.6901 11.1815 48.6036 11.2871 48.513 11.3969C48.3401 11.6165 48.163 11.8235 47.9818 12.0177C47.7512 12.3556 47.5082 12.6935 47.2529 13.0314C46.9976 13.3692 46.7464 13.6987 46.4993 14.0196C46.2687 14.3997 46.0299 14.7123 45.7828 14.9572C45.7087 15.1177 45.5852 15.3289 45.4122 15.5908C45.2475 15.8442 45.0787 16.0976 44.9057 16.351C44.7328 16.5959 44.5969 16.7902 44.498 16.9338C44.4651 16.9422 44.4239 16.9718 44.3745 17.0225L44.2757 17.1365C44.9016 17.1281 45.5069 17.0689 46.0917 16.9591C46.6764 16.8493 47.1747 16.7902 47.5865 16.7818C47.6606 16.7733 47.7388 16.7649 47.8212 16.7564C47.9036 16.7395 47.9859 16.7269 48.0683 16.7184C48.1589 16.7015 48.2453 16.6888 48.3277 16.6804C48.4183 16.6719 48.5089 16.6635 48.5995 16.6551C48.7065 16.6551 48.7889 16.6593 48.8466 16.6677C48.9042 16.6762 48.9866 16.6804 49.0936 16.6804H49.5013C49.5672 16.6804 49.6331 16.6804 49.699 16.6804C49.7731 16.6719 49.8431 16.6635 49.909 16.6551C50.0572 16.6888 50.2055 16.7142 50.3537 16.7311C50.5019 16.7395 50.6502 16.7649 50.7984 16.8071C50.9384 16.8409 51.0743 16.8662 51.2061 16.8831C51.3461 16.8916 51.482 16.9169 51.6138 16.9591C51.6961 17.0098 51.7785 17.0521 51.8609 17.0858C51.9103 17.1027 51.9556 17.1112 51.9967 17.1112C52.0626 17.1112 52.1162 17.1281 52.1573 17.1619C52.215 17.1788 52.2768 17.1957 52.3427 17.2125C52.4085 17.2294 52.4744 17.2463 52.5403 17.2632C52.6968 17.3055 52.8162 17.3646 52.8986 17.4406C52.9315 17.5166 52.9933 17.5884 53.0839 17.656C53.1251 17.6898 53.1662 17.7236 53.2074 17.7574C53.2568 17.7912 53.3021 17.8292 53.3433 17.8714C53.541 18.0741 53.5245 18.2515 53.2939 18.4035C53.228 18.4289 53.1621 18.4585 53.0962 18.4922C53.0303 18.5176 52.9645 18.5471 52.8986 18.5809C52.7668 18.6401 52.6103 18.6654 52.4291 18.657C52.2809 18.7921 52.1162 18.8512 51.935 18.8343C51.8526 18.8259 51.762 18.8259 51.6632 18.8343C51.5644 18.8343 51.4573 18.8428 51.342 18.8597C51.2267 18.961 51.0743 19.0371 50.8849 19.0877C50.6955 19.1384 50.5596 19.0708 50.4772 18.885C50.2796 18.8174 50.0819 18.8005 49.8843 18.8343C49.6701 18.8766 49.4642 18.8766 49.2666 18.8343C48.9207 18.7668 48.6612 18.7456 48.4883 18.771C48.3977 18.7794 48.303 18.7921 48.2042 18.809C48.1136 18.8174 48.023 18.8259 47.9324 18.8343C47.5865 18.8428 47.2529 18.8681 46.9317 18.9104C46.7752 18.9273 46.6146 18.9441 46.4499 18.961C46.2852 18.9779 46.1205 18.9948 45.9558 19.0117C45.7169 19.0793 45.4534 19.1173 45.1651 19.1258C44.8522 19.1426 44.5886 19.1722 44.3745 19.2144C44.1439 19.2144 43.9051 19.2313 43.658 19.2651C43.4109 19.2989 43.1638 19.3327 42.9168 19.3665C42.785 19.3834 42.6615 19.4003 42.5462 19.4172C42.4391 19.4425 42.3403 19.4721 42.2497 19.5059C42.0603 19.5734 41.8955 19.6114 41.7555 19.6199C41.4343 19.6537 41.1955 19.5354 41.039 19.2651C41.0061 19.1215 40.969 19.0033 40.9278 18.9104L40.8166 18.6316C40.7672 18.26 40.8331 17.939 41.0143 17.6687C41.1955 17.3984 41.3684 17.1619 41.5332 16.9591C41.6402 16.7395 41.772 16.5621 41.9285 16.427C42.0603 16.2243 42.192 16.03 42.3238 15.8442C42.4556 15.6583 42.5956 15.4978 42.7438 15.3627C42.9003 15.0755 43.098 14.8432 43.3368 14.6658C43.5509 14.5053 43.7568 14.2899 43.9545 14.0196C44.2674 13.6902 44.498 13.4115 44.6463 13.1834C44.7287 13.0651 44.8151 12.9553 44.9057 12.854C44.9963 12.7442 45.091 12.6428 45.1899 12.5499C45.2969 12.3978 45.404 12.2711 45.5111 12.1698C45.6264 11.984 45.7417 11.815 45.857 11.663C45.9723 11.5109 46.0958 11.3673 46.2276 11.2322C46.277 11.1477 46.3429 11.0801 46.4252 11.0295C46.697 10.6071 46.9935 10.1974 47.3147 9.80044C47.6277 9.42034 47.9241 9.02756 48.2042 8.62211C48.583 8.28424 48.9124 7.96748 49.1925 7.67184C49.4725 7.3762 49.6948 7.02566 49.8596 6.62021C49.9254 6.54419 49.9872 6.47239 50.0449 6.40481C50.1107 6.32879 50.1725 6.257 50.2302 6.18942C50.3372 6.05427 50.469 5.92757 50.6255 5.80931C50.7161 5.75018 50.7984 5.68261 50.8726 5.60659C50.9632 5.51367 51.029 5.4292 51.0702 5.35318C51.1196 5.26027 51.1855 5.16735 51.2679 5.07444C51.3255 5.00686 51.3832 4.93929 51.4408 4.87171C51.5067 4.80414 51.5685 4.73656 51.6261 4.66899C51.692 4.60141 51.7538 4.53384 51.8114 4.46627C51.8691 4.39869 51.9267 4.33112 51.9844 4.26354C52.0338 4.21286 52.0709 4.17063 52.0956 4.13684C52.1203 4.10305 52.1656 4.06082 52.2315 4.01014C52.2644 3.92567 52.3138 3.85809 52.3797 3.80741C52.4456 3.75673 52.495 3.68071 52.528 3.57935C52.7091 3.38507 52.8944 3.14011 53.0839 2.84447C53.1745 2.70932 53.2609 2.58262 53.3433 2.46436C53.4339 2.33766 53.5245 2.21941 53.6151 2.1096C53.4092 2.07581 53.1909 2.08426 52.9603 2.13494L52.2809 2.28698C52.0503 2.32077 51.8279 2.363 51.6138 2.41368C51.3997 2.46436 51.1855 2.51505 50.9714 2.56573C50.889 2.59951 50.8026 2.6333 50.712 2.66709C50.6214 2.70088 50.5267 2.72622 50.4278 2.74311C50.3537 2.74311 50.259 2.73466 50.1437 2.71777C50.0613 2.70088 49.9749 2.70088 49.8843 2.71777H49.526C49.4025 2.71777 49.2913 2.70088 49.1925 2.66709C49.0689 2.6333 48.9536 2.61641 48.8466 2.61641C48.7148 2.58262 48.5995 2.56995 48.5006 2.5784C48.4183 2.58684 48.3277 2.55728 48.2289 2.48971C48.13 2.40524 48.0312 2.35878 47.9324 2.35033C47.8335 2.34189 47.71 2.33766 47.5618 2.33766C47.3641 2.33766 47.1664 2.33344 46.9688 2.32499C46.7711 2.31655 46.5899 2.26164 46.4252 2.16028C46.2193 2.04202 46.0999 1.966 46.067 1.93221C46.034 1.88998 45.997 1.8393 45.9558 1.78017C45.857 1.61123 45.8199 1.47186 45.8446 1.36205C45.8693 1.25224 45.9146 1.18045 45.9805 1.14666C46.1864 1.14666 46.3223 1.12976 46.3882 1.09598C46.4293 1.07908 46.4664 1.06219 46.4993 1.0453C46.5405 1.0284 46.5817 1.01151 46.6229 0.994615C46.7958 0.960828 46.9523 0.931264 47.0923 0.905923C47.2323 0.880583 47.3559 0.863689 47.4629 0.855242C47.57 0.838349 47.673 0.825678 47.7718 0.817232C47.8788 0.800338 47.9818 0.783444 48.0806 0.766551C48.2948 0.724316 48.5089 0.686306 48.723 0.652518C48.9371 0.618731 49.1472 0.584944 49.3531 0.551156C49.5672 0.517369 49.7772 0.479358 49.9831 0.437124C50.189 0.386443 50.3949 0.327315 50.6008 0.25974C50.8396 0.25974 51.0785 0.217506 51.3173 0.133038H52.8739C53.1127 0.133038 53.3557 0.137261 53.6027 0.145708C53.858 0.154155 54.1175 0.166825 54.381 0.183719C54.4551 0.149931 54.554 0.141485 54.6775 0.158378L55.0234 0.209059C55.2622 0.217506 55.534 0.217506 55.8387 0.209059C56.1517 0.192166 56.44 0.242847 56.7035 0.361102C56.8929 0.470911 56.9918 0.546933 57 0.589167Z" fill="white"/>
</svg>
