<svg width="120" height="120" viewBox="0 0 120 120" fill="none" xmlns="http://www.w3.org/2000/svg">
<path d="M82.14 100.242H38.1022C28.1028 100.242 20 92.1394 20 82.14V38.1022C20 28.1028 28.1028 20 38.1022 20H82.14C92.1394 20 100.242 28.1028 100.242 38.1022V82.14C100.242 92.1394 92.1394 100.242 82.14 100.242Z" fill="url(#paint0_linear_819_215)"/>
<path d="M61.466 66.0485H53.5854L59.5184 55.8087L60.1207 54.7647L64.1865 47.7776L64.9696 46.4123L66.6561 43.5211C67.399 42.2562 67.4191 40.6298 66.5758 39.4352C65.853 38.4112 64.819 37.9996 63.795 37.9996C62.5903 37.9996 61.4158 38.622 60.7532 39.7464L60.1509 40.8105L59.5284 39.7464C58.8659 38.622 57.6813 37.9996 56.4866 37.9996C55.8843 37.9996 55.282 38.1402 54.7198 38.4614C53.0533 39.4252 52.4811 41.5835 53.4549 43.25L56.075 47.7776L45.4739 66.0685H38.5872C36.479 66.0886 34.7925 67.9559 35.1238 70.1544C35.3848 71.8811 37.001 73.0858 38.7478 73.0858H41.4081L49.5196 73.0657H65.7124C66.0136 73.0657 66.3148 72.9352 66.4955 72.6943C67.4191 71.4595 68.1017 69.542 65.8429 67.5643C64.6483 66.5103 63.0521 66.0485 61.466 66.0485Z" fill="white"/>
<path d="M81.5059 66.0264H74.7597L65.7347 50.456C65.5741 50.1849 65.2127 50.0946 64.9617 50.2753C63.6968 51.1888 62.9539 52.4638 62.5724 53.8692C61.9299 56.2384 62.462 58.7783 63.6867 60.9065L65.6243 64.2696L66.6482 66.0565L70.714 73.0637L71.1356 73.7664L75.0408 80.5126C75.7034 81.637 76.8679 82.2594 78.0625 82.2594C78.6649 82.2594 79.2873 82.0988 79.8494 81.7775C81.5159 80.8138 82.0881 78.6755 81.1144 76.9889L78.8355 73.0436H81.6765C83.7847 73.0436 85.4612 71.1362 85.1199 68.9377C84.8388 67.221 83.2426 66.0264 81.5059 66.0264ZM44.9842 73.9773C43.7494 73.4753 42.5849 73.5355 41.6512 73.7965C41.1392 73.9371 40.7176 74.2885 40.4566 74.7402L39.1515 76.9689C38.1677 78.6554 38.75 80.7937 40.4164 81.7574C40.9786 82.0787 41.601 82.2393 42.2034 82.2393C43.4081 82.2393 44.5625 81.6169 45.205 80.4925L46.6908 77.9326C47.0522 77.3001 47.1225 76.5372 46.8514 75.8646C46.5502 75.1117 45.9881 74.3888 44.9842 73.9773Z" fill="white"/>
<defs>
<linearGradient id="paint0_linear_819_215" x1="60.1211" y1="20" x2="60.1211" y2="100.242" gradientUnits="userSpaceOnUse">
<stop stop-color="#1AC7FB"/>
<stop offset="1" stop-color="#1D72F2"/>
</linearGradient>
</defs>
</svg>
