<svg width="120" height="120" viewBox="0 0 120 120" fill="none" xmlns="http://www.w3.org/2000/svg">
<path d="M35 101H28C23.5817 101 20 97.4183 20 93V48H35V101ZM100 93C100 97.4183 96.4183 101 92 101H43V48H100V93ZM92 21C96.4183 21 100 24.5817 100 29V40H20V29C20 24.5817 23.5817 21 28 21H92Z" fill="url(#paint0_linear_819_219)"/>
<circle cx="3" cy="3" r="3" transform="matrix(1 0 0 -1 26 33)" fill="#FF813C"/>
<circle cx="3" cy="3" r="3" transform="matrix(1 0 0 -1 34 33)" fill="#999999"/>
<circle cx="3" cy="3" r="3" transform="matrix(1 0 0 -1 42 33)" fill="#46FA58"/>
<path d="M87 55C88.8333 69.6667 85.4 97.2 57 90" stroke="#EEEEEE" stroke-width="4" stroke-dasharray="8 8"/>
<defs>
<linearGradient id="paint0_linear_819_219" x1="60" y1="21" x2="60" y2="101" gradientUnits="userSpaceOnUse">
<stop offset="0.298077" stop-color="#D1D1D1"/>
<stop offset="1" stop-color="#1D72F2"/>
</linearGradient>
</defs>
</svg>
