<svg width="120" height="120" viewBox="0 0 120 120" fill="none" xmlns="http://www.w3.org/2000/svg">
<path d="M55.2934 24.4243C58.0991 22.383 61.9009 22.383 64.7066 24.4243L97.3053 48.1416C100.105 50.1788 101.277 53.786 100.208 57.0797L87.752 95.469C86.682 98.7668 83.6096 101 80.1426 101H39.8574C36.3904 101 33.318 98.7668 32.2479 95.469L19.7918 57.0797C18.7232 53.786 19.8947 50.1788 22.6947 48.1416L55.2934 24.4243Z" fill="url(#paint0_linear_820_254)"/>
<path d="M79.1301 58.2193C78.8629 58.0997 78.5689 58.0378 78.2696 58.0378C77.8687 58.0378 77.4731 58.1492 77.1524 58.3636L68.5093 64.2196L61.4537 51.5897C61.133 51.1979 60.5718 51 60.0052 51C59.4386 51 58.872 51.1979 58.5567 51.5897L51.4904 64.2278L42.842 58.3719C42.5213 58.1574 42.1257 58.0461 41.7302 58.0461C41.4362 58.0461 41.1422 58.1079 40.8696 58.2275C40.2389 58.5121 39.9021 59.0853 40.0251 59.6544L46.6563 78.1914C46.8007 78.8471 47.2015 79.2966 48.0461 79.2966H71.9537C71.9537 79.2966 72.0178 79.309 72.114 79.309C72.4294 79.309 73.1296 79.1894 73.3487 78.1914L79.9747 59.6462C80.0976 59.0771 79.7662 58.508 79.1301 58.2193ZM70.441 76.8594H49.5641L43.8094 62.269L49.4111 66.0589L52.2013 67.9476L54.1737 65.5227L59.9999 54.394L65.8368 65.5145L67.8091 67.9352L70.5993 66.0465L76.1957 62.2525L70.441 76.8594ZM74.7364 82.5628H45.2633C44.6807 82.5628 44.2103 82.9257 44.2103 83.3752V84.1876C44.2103 84.6371 44.6807 85 45.2633 85H74.7364C75.319 85 75.7894 84.6371 75.7894 84.1876V83.3752C75.7894 82.9257 75.319 82.5628 74.7364 82.5628Z" fill="url(#paint1_linear_820_254)"/>
<path d="M70.441 76.8594H49.5641L43.8094 62.269L49.4111 66.0589L52.2013 67.9476L54.1737 65.5227L59.9999 54.394L65.8368 65.5145L67.8091 67.9352L70.5993 66.0465L76.1957 62.2525L70.441 76.8594Z" fill="url(#paint2_linear_820_254)"/>
<circle cx="3" cy="3" r="3" transform="matrix(1 0 0 -1 34 56)" fill="white"/>
<circle cx="3" cy="3" r="3" transform="matrix(1 0 0 -1 57 47)" fill="white"/>
<circle cx="3" cy="3" r="3" transform="matrix(1 0 0 -1 80 56)" fill="white"/>
<defs>
<linearGradient id="paint0_linear_820_254" x1="60" y1="21" x2="60" y2="101" gradientUnits="userSpaceOnUse">
<stop stop-color="#A151F1"/>
<stop offset="1" stop-color="#6B0D85"/>
</linearGradient>
<linearGradient id="paint1_linear_820_254" x1="60" y1="53" x2="60" y2="85" gradientUnits="userSpaceOnUse">
<stop stop-color="#E7E3EB"/>
<stop offset="1" stop-color="#BC78FF"/>
</linearGradient>
<linearGradient id="paint2_linear_820_254" x1="60" y1="53" x2="60" y2="85" gradientUnits="userSpaceOnUse">
<stop stop-color="#E7E3EB"/>
<stop offset="1" stop-color="#BC78FF"/>
</linearGradient>
</defs>
</svg>
